Coordinates
version=1
nRows=14
nColumns=42
inDegrees=yes

Units are S.I. units (second, meters, Newtons, ...)
If the header above contains a line with 'inDegrees', this indicates whether rotational values are in degrees (yes) or radians (no).

endheader
time	pelvis_tilt	pelvis_list	pelvis_rotation	pelvis_tx	pelvis_ty	pelvis_tz	hip_flexion_r	hip_adduction_r	hip_rotation_r	knee_angle_r	knee_adduction_r	knee_angle_r_beta	ankle_angle_r	subtalar_angle_r	mtp_angle_r	hip_flexion_l	hip_adduction_l	hip_rotation_l	knee_angle_l	knee_adduction_l	knee_angle_l_beta	ankle_angle_l	subtalar_angle_l	mtp_angle_l	lumbar_extension	lumbar_bending	lumbar_rotation	arm_flex_r	arm_add_r	arm_rot_r	elbow_flex_r	pro_sup_r	wrist_flex_r	wrist_dev_r	arm_flex_l	arm_add_l	arm_rot_l	elbow_flex_l	pro_sup_l	wrist_flex_l	wrist_dev_l
      0.73000000	      1.68025024	     -1.38578380	     -3.19462505	     -1.40326662	      0.95821241	      0.34239687	    -14.59222844	      1.54702008	     -4.22735234	      3.65158592	      3.44527356	      0.06373220	     17.92951339	     16.19097844	     -7.83025971	     20.23270763	     -3.86538955	    -18.38189267	      7.33075481	     -0.59627349	      0.12794581	      4.20149371	     19.03660670	     -7.83025971	    -11.63793580	      2.18631324	      4.64737499	      7.26947602	    -18.09329591	      8.47961052	     39.86243098	     90.00000001	      0.00000000	      0.00000000	    -12.19615734	    -12.03549026	      8.08339698	     30.21471295	     90.00000001	      0.00000000	      0.00000000
      0.74000000	      1.51428456	     -1.57477760	     -3.23962810	     -1.39373108	      0.95653381	      0.34254930	    -14.95459467	      1.78486045	     -4.10259131	      3.84476473	      3.33343051	      0.06710380	     18.17266119	     16.05844878	     -7.82705383	     20.40414647	     -3.95544042	    -18.46175857	      6.14896144	     -0.47576927	      0.10731962	      3.99819036	     20.15757385	     -7.82705383	    -11.53026717	      2.20629984	      4.73761142	      7.50777564	    -18.12676626	      8.87346027	     39.75314224	     90.00000001	      0.00000000	      0.00000000	    -12.27960730	    -12.02229023	      7.96004301	     30.13308652	     90.00000001	      0.00000000	      0.00000000
      0.75000000	      1.43422571	     -1.70913194	     -3.34042879	     -1.38391674	      0.95501839	      0.34259465	    -15.41577649	      1.90332472	     -3.97004453	      4.05140024	      3.26346049	      0.07071027	     18.37175663	     15.92844025	     -7.82346911	     20.49233994	     -3.98925436	    -18.65853192	      5.40321340	     -0.45197171	      0.09430386	      3.86463895	     21.11808425	     -7.82346911	    -11.48547063	      2.16724965	      4.83989712	      7.71718706	    -18.16585627	      9.36757301	     39.63456462	     90.00000001	      0.00000000	      0.00000000	    -12.35893306	    -11.98142992	      7.76416271	     30.03653113	     90.00000001	      0.00000000	      0.00000000
      0.76000000	      1.42696690	     -1.77897304	     -3.50001939	     -1.37394858	      0.95367634	      0.34267163	    -15.96142519	      1.90928957	     -3.79304149	      4.25878869	      3.21405550	      0.07432988	     18.52872996	     15.84754406	     -7.81934704	     20.52489739	     -3.98470617	    -18.94731848	      5.10576652	     -0.48954837	      0.08911244	      3.78517891	     21.85581722	     -7.81934704	    -11.52578697	      2.02628773	      4.96779132	      7.88870732	    -18.20776715	      9.93638511	     39.49457133	     90.00000001	      0.00000000	      0.00000000	    -12.40050474	    -11.93612432	      7.50618820	     29.89759004	     90.00000001	      0.00000000	      0.00000000
      0.77000000	      1.28109818	     -1.87206720	     -3.58624749	     -1.36384993	      0.95224776	      0.34254787	    -16.33628379	      1.91935705	     -3.76331455	      4.52512262	      3.21814401	      0.07897829	     18.50212066	     15.82909774	     -7.81829933	     20.73444212	     -3.98344859	    -18.88280535	      5.23817791	     -0.53708069	      0.09142345	      3.75469238	     21.82861039	     -7.81829933	    -11.40349087	      1.94380300	      5.05672075	      7.88990113	    -18.15114869	      9.98556832	     39.52032351	     90.00000001	      0.00000000	      0.00000000	    -12.45818914	    -11.94931310	      7.48135464	     29.89839211	     90.00000001	      0.00000000	      0.00000000
      0.78000000	      1.16282918	     -1.94557702	     -3.74581665	     -1.35335341	      0.95096639	      0.34259454	    -16.74338441	      1.89283482	     -3.66920087	      4.82506294	      3.18865704	      0.08421323	     18.48343677	     15.82896798	     -7.81715112	     20.80265584	     -3.96610826	    -18.72137139	      5.50937025	     -0.67519875	      0.09615665	      3.65516564	     21.81179255	     -7.81715112	    -11.27048921	      1.81230499	      5.19479614	      7.80498959	    -18.06569008	     10.08680220	     39.47434436	     90.00000001	      0.00000000	      0.00000000	    -12.55039662	    -11.96503026	      7.44656104	     29.84648337	     90.00000001	      0.00000000	      0.00000000
      0.79000000	      1.56957812	     -1.65055544	     -4.23087815	     -1.34279729	      0.95056868	      0.34250388	    -17.68788654	      1.25149965	     -3.26459676	      5.08993751	      3.25524961	      0.08883617	     18.60027071	     16.05227025	     -7.81108260	     20.30142509	     -3.63397067	    -19.40208895	      6.13116034	     -0.88950004	      0.10700893	      3.08556045	     21.64032577	     -7.81108260	    -11.71452434	      1.21840519	      5.54441754	      7.98183462	    -18.16576030	     11.09311130	     39.10395991	     90.00000001	      0.00000000	      0.00000000	    -12.30777149	    -11.84226803	      7.04591358	     29.31128885	     90.00000001	      0.00000000	      0.00000000
      0.80000000	      1.55387185	     -1.60950408	     -4.46411630	     -1.33214732	      0.94977839	      0.34230584	    -18.12351301	      1.01714154	     -3.01476815	      5.51504344	      3.22678961	      0.09625567	     18.46272253	     16.12126826	     -7.80876387	     20.19149477	     -3.44396870	    -19.12837193	      6.71207652	     -1.19885122	      0.11714783	      2.69483614	     21.51678427	     -7.80876387	    -11.69427755	      0.95720104	      5.72417155	      7.84077545	    -18.11610790	     11.25403748	     39.04795251	     90.00000001	      0.00000000	      0.00000000	    -12.26251334	    -11.84592368	      6.95029010	     29.24716797	     90.00000001	      0.00000000	      0.00000000
      0.81000000	      1.75021590	     -1.35297183	     -4.79126384	     -1.32124569	      0.94955137	      0.34197143	    -18.73823337	      0.42512581	     -2.82652397	      5.99703441	      3.33367332	      0.10466800	     18.22731148	     16.21824005	     -7.80496531	     19.81805400	     -3.07232277	    -19.37399292	      7.38630917	     -1.47051330	      0.12891541	      1.69166091	     20.89853816	     -7.80496531	    -11.87726883	      0.43552954	      5.91144556	      7.71636357	    -18.04420521	     11.55391179	     38.88801746	     90.00000001	      0.00000000	      0.00000000	    -12.09805885	    -11.78402914	      6.83179105	     28.86017483	     90.00000001	      0.00000000	      0.00000000
      0.82000000	      1.97855882	     -0.84113054	     -5.23805185	     -1.31006266	      0.94966698	      0.34166522	    -19.28115623	     -0.52366344	     -2.64482983	      6.64048318	      3.49935873	      0.11589830	     17.98454509	     16.35704943	     -7.79859140	     19.14095376	     -2.41178994	    -19.34660914	      7.62223893	     -1.68073851	      0.13303317	      0.56909170	     20.08773204	     -7.79859140	    -12.04193555	     -0.39311903	      6.19832407	      7.46588668	    -17.93501696	     11.82606093	     38.72443903	     90.00000001	      0.00000000	      0.00000000	    -11.89343525	    -11.74745612	      6.60904324	     28.48101806	     90.00000001	      0.00000000	      0.00000000
      0.83000000	      1.93540820	     -0.71482631	     -5.38571103	     -1.29923270	      0.94973252	      0.34134257	    -19.51899851	     -0.81597166	     -2.29515260	      7.30759626	      3.43746430	      0.12754162	     17.61996632	     16.39407471	     -7.79649539	     18.90995637	     -2.17334667	    -18.91898559	      8.15192286	     -1.87378592	      0.14227789	      0.02185435	     19.89921855	     -7.79649539	    -11.99566125	     -0.75724506	      6.24460657	      7.17787737	    -17.78592920	     11.88217787	     38.60833659	     90.00000001	      0.00000000	      0.00000000	    -11.74755767	    -11.79322750	      6.57944803	     28.41333956	     90.00000001	      0.00000000	      0.00000000
      0.84000000	      2.26386628	      0.25515121	     -5.83737863	     -1.28781544	      0.95072464	      0.34037150	    -19.80725228	     -2.44950032	     -2.64767497	      8.57035829	      3.84635098	      0.14958097	     17.27480962	     16.63617174	     -7.78331039	     17.76255298	     -0.80339078	    -18.26386941	      7.61440642	     -2.11994583	      0.13289646	     -1.76971325	     17.57886213	     -7.78331039	    -12.21078168	     -2.04010717	      6.43783425	      6.83436007	    -17.53959287	     11.67326378	     38.30340115	     90.00000001	      0.00000000	      0.00000000	    -11.38017665	    -11.72607466	      6.39699597	     27.79917748	     90.00000001	      0.00000000	      0.00000000
      0.85000000	      2.20047345	      0.67460325	     -5.85109905	     -1.27691290	      0.95158858	      0.33966314	    -19.56928365	     -3.11751238	     -3.18836216	     10.05903786	      3.86216335	      0.17556333	     16.60805329	     17.20030310	     -7.76147674	     17.16725621	     -0.12745504	    -16.72901108	      7.43662165	     -2.10545038	      0.12979353	     -2.91481280	     15.09634364	     -7.76147674	    -12.11888536	     -2.69249067	      6.28519134	      6.48037889	    -17.21507740	     11.40074474	     38.02369065	     90.00000001	      0.00000000	      0.00000000	    -11.10286536	    -11.78820314	      6.41333447	     27.53822402	     90.00000001	      0.00000000	      0.00000000
      0.86000000	      2.15688710	      0.86750630	     -5.88721595	     -1.26590044	      0.95283526	      0.33901202	    -19.38070874	     -3.53036955	     -3.10764499	     11.45068454	      3.92290159	      0.19985215	     15.44844399	     16.76935459	     -7.75774552	     16.81778390	      0.10953230	    -16.54825655	      7.88566303	     -2.09916415	      0.13763078	     -3.21822931	     14.88492919	     -7.75774552	    -12.06092290	     -3.09005977	      6.17116438	      6.09342680	    -16.98573544	     11.41948822	     37.72286673	     90.00000001	      0.00000000	      0.00000000	    -10.79694662	    -11.81405821	      6.50861105	     27.26730709	     90.00000001	      0.00000000	      0.00000000
